# xmcd
#
# Track frame offsets:
#	150
#	16652
#	35392
#	60410
#	84645
#	106162
#	123770
#	146030
#	167712
#	185965
#
# Disc length: 2869 seconds
#
# Revision: 1
# Processed by: cddbd v1.4PL0 Copyright (c) Steve Scherf et al.
# Submitted via: EasyCDDAExtractor 5.0.7
#
DISCID=7c0b330a
DTITLE=Various Artist - Gia Biet Tinh Em
DYEAR=1900
DGENRE=Vietnamese
TTITLE0=Thanh Ha - Mot Chieu Mua
TTITLE1=Vu Khanh - Cam On Tinh Em
TTITLE2=Vu Khanh and Thanh Ha - Thoang Giac Mo Qua
TTITLE3=Thanh Ha - Mot Mai Em Di
TTITLE4=Vu Khanh - Bong Mat Vuon Dia Dang
TTITLE5=Vu Khanh - Doan Khuc Mua Thu Ha Noi
TTITLE6=Thanh Ha - Cho Lan Cuoi
TTITLE7=Vu Khanh - Gia Biet Tinh Em
TTITLE8=Thanh Ha - Thien Dang Danh Mat
TTITLE9=Thanh Ha - Tinh Yeu Den Trong Gia Tu
EXTD=
EXTT0=
EXTT1=
EXTT2=
EXTT3=
EXTT4=
EXTT5=
EXTT6=
EXTT7=
EXTT8=
EXTT9=
PLAYORDER=
